<svg height="512" viewBox="0 0 512 512" width="512" xmlns="http://www.w3.org/2000/svg"><g><path d="m496 464h-8v-272a8 8 0 0 0 -8-8h-24v-40a8 8 0 0 0 -8-8h-128a8 8 0 0 0 -8 8v40h-16v-168a8 8 0 0 0 -8-8h-256a8 8 0 0 0 -8 8v448h-8a8 8 0 0 0 -8 8v24a8 8 0 0 0 8 8h480a8 8 0 0 0 8-8v-24a8 8 0 0 0 -8-8zm-168-312h112v32h-112zm-32 48h176v264h-176zm-256-176h240v440h-40v-16a8 8 0 0 0 -8-8h-8v-120a8 8 0 0 0 -8-8h-112a8 8 0 0 0 -8 8v120h-8a8 8 0 0 0 -8 8v16h-40zm184 432v8h-128v-8zm-112-16v-112h40v112zm56 0v-112h40v112zm320 48h-464v-8h464z"/><path d="m144 296a8 8 0 0 0 8-8v-96a8 8 0 0 0 -8-8h-80a8 8 0 0 0 -8 8v96a8 8 0 0 0 8 8zm-72-96h64v80h-64z"/><path d="m176 296h80a8 8 0 0 0 8-8v-96a8 8 0 0 0 -8-8h-80a8 8 0 0 0 -8 8v96a8 8 0 0 0 8 8zm8-96h64v80h-64z"/><path d="m64 168h80a8 8 0 0 0 8-8v-96a8 8 0 0 0 -8-8h-80a8 8 0 0 0 -8 8v96a8 8 0 0 0 8 8zm8-96h64v80h-64z"/><path d="m176 168h80a8 8 0 0 0 8-8v-96a8 8 0 0 0 -8-8h-80a8 8 0 0 0 -8 8v96a8 8 0 0 0 8 8zm8-96h64v80h-64z"/><path d="m344 448h80a8 8 0 0 0 8-8v-96a8 8 0 0 0 -8-8h-80a8 8 0 0 0 -8 8v96a8 8 0 0 0 8 8zm8-96h64v80h-64z"/><path d="m344 320h80a8 8 0 0 0 8-8v-96a8 8 0 0 0 -8-8h-80a8 8 0 0 0 -8 8v96a8 8 0 0 0 8 8zm8-96h64v80h-64z"/></g></svg>